<?xml version="1.0" encoding="UTF-8"?>
<svg xmlns="http://www.w3.org/2000/svg" width="256" height="256" viewBox="0 0 256 256">
  <defs>
    <pattern id="dots" x="0" y="0" width="64" height="64" patternUnits="userSpaceOnUse">
      <rect width="64" height="64" fill="#efeae2"/>
      <g fill="#d9d4cc" opacity="0.6">
        <circle cx="8" cy="8" r="2"/>
        <circle cx="32" cy="12" r="1.8"/>
        <circle cx="56" cy="8" r="1.6"/>
        <circle cx="16" cy="32" r="1.8"/>
        <circle cx="40" cy="40" r="2"/>
        <circle cx="8" cy="56" r="1.6"/>
        <circle cx="56" cy="56" r="2"/>
      </g>
      <g stroke="#d9d4cc" stroke-width="1" opacity="0.35" fill="none">
        <path d="M22 20c6 0 6 8 12 8s6-8 12-8"/>
        <path d="M6 36c4 0 4 6 8 6s4-6 8-6"/>
        <path d="M46 50c5 0 5 6 10 6s5-6 10-6"/>
      </g>
    </pattern>
  </defs>
  <rect width="100%" height="100%" fill="url(#dots)"/>
</svg>
